<svg width="50" height="50" viewBox="0 0 50 50" fill="none" xmlns="http://www.w3.org/2000/svg">
<path fill-rule="evenodd" clip-rule="evenodd" d="M24.3043 11.5735C17.2733 11.5735 11.5735 17.2733 11.5735 24.3043C11.5735 31.3354 17.2733 37.0352 24.3043 37.0352C25.6755 37.0352 26.996 36.8184 28.2335 36.4172L20.2125 28.3962L28.3962 20.2125L36.4172 28.2335C36.8184 26.996 37.0352 25.6755 37.0352 24.3043C37.0352 17.2733 31.3354 11.5735 24.3043 11.5735ZM45.0903 36.9066C47.3229 33.2319 48.6086 28.9183 48.6086 24.3043C48.6086 10.8814 37.7272 0 24.3043 0C10.8814 0 0 10.8814 0 24.3043C0 37.7272 10.8814 48.6086 24.3043 48.6086C28.9183 48.6086 33.2319 47.3229 36.9066 45.0903L41.8163 50L50 41.8163L45.0903 36.9066Z" fill="white"/>
</svg>
